<svg width="395" height="395" viewBox="0 0 395 395" fill="none" xmlns="http://www.w3.org/2000/svg">
<path d="M322.172 111.094H72.8281C69.7908 111.108 66.8626 112.228 64.5909 114.244C62.3191 116.26 60.8593 119.035 60.4844 122.049L38.5742 319.549C38.3794 321.27 38.5488 323.012 39.0715 324.663C39.5942 326.314 40.4584 327.837 41.608 329.132C42.7577 330.427 44.167 331.466 45.7444 332.181C47.3218 332.896 49.0319 333.271 50.7637 333.281H344.236C345.968 333.271 347.678 332.896 349.256 332.181C350.833 331.466 352.242 330.427 353.392 329.132C354.542 327.837 355.406 326.314 355.929 324.663C356.451 323.012 356.621 321.27 356.426 319.549L334.516 122.049C334.141 119.035 332.681 116.26 330.409 114.244C328.137 112.228 325.209 111.108 322.172 111.094V111.094Z" stroke="black" stroke-width="8" stroke-linecap="round" stroke-linejoin="round"/>
<path d="M135.781 160.469V111.094C135.781 94.7249 142.284 79.0265 153.858 67.452C165.433 55.8775 181.131 49.375 197.5 49.375C213.869 49.375 229.567 55.8775 241.142 67.452C252.716 79.0265 259.219 94.7249 259.219 111.094V160.469" stroke="black" stroke-width="8" stroke-linecap="round" stroke-linejoin="round"/>
</svg>
